<svg id="Слой_1" data-name="Слой 1" xmlns="http://www.w3.org/2000/svg" viewBox="0 0 150 190"><defs><style>.cls-1{fill-rule:evenodd;}</style></defs><title>Монтажная область 69</title><path class="cls-1" d="M124.05,130.68v8.58L116,146.6l-17.4.25-2.45-6-4.4-3.7L93,122.72l5.58,0,6.79-7.82,15.44,5-.25,8.39Zm-16.88-10.09-4.26,4,3.1,2,6.94-4Zm11.16,12-8.06-3.94L106,131.1l-6-2.55-3.53,7.75,11.5-.17,1.92,4.78,3.56.88,2.27-4.37,3.76-.67ZM44.67,78.8l60.61-.71.22,11.56-59.82-.41Zm35.88-5V69.71L69,69.57v4.15l-8.23,0s-.19-3.06-.24-5.54c-.11-4.54,2.62-6.65,7.79-6.82,2.45-.09,9.77.08,12.84.08,5.57,0,7.76,2.2,7.79,5.85,0,2.53-.19,6.57-.19,6.57Zm21,38.44-8.85,6c.33-5.68.62-10.84.76-13.1.34-5.88-6.87-5.53-6.85-.18,0,2.84.11,24.49.14,32l.35,0-.23,2.85,5.43,7-40.8.73L49.69,94.33l52.54,0ZM59,105.38c0,3.21.73,27.38.91,33.1l5.65-.32c.07-5.28.4-28.49.4-33.06C65.91,99.51,59,99.42,59,105.38Zm14-.07c.33,3.06.65,25.48.74,32.38l5.83-.33c.1-7.28.39-27.52.39-32.33C80,99.14,72.44,100,73,105.31Z"/></svg>