<?xml version="1.0" encoding="UTF-8" standalone="no"?>
<!-- Created with Inkscape (http://www.inkscape.org/) -->

<svg
   version="1.1"
   id="svg9"
   width="512"
   height="512"
   viewBox="0 0 512 512"
   sodipodi:docname="free-icon-plus-positive-add-mathematical-symbol-43869.svg"
   inkscape:version="1.1.2 (b8e25be833, 2022-02-05)"
   xmlns:inkscape="http://www.inkscape.org/namespaces/inkscape"
   xmlns:sodipodi="http://sodipodi.sourceforge.net/DTD/sodipodi-0.dtd"
   xmlns="http://www.w3.org/2000/svg"
   xmlns:svg="http://www.w3.org/2000/svg">
  <defs
     id="defs13" />
  <sodipodi:namedview
     id="namedview11"
     pagecolor="#ffffff"
     bordercolor="#666666"
     borderopacity="1.0"
     inkscape:pageshadow="2"
     inkscape:pageopacity="0.0"
     inkscape:pagecheckerboard="0"
     showgrid="false"
     inkscape:zoom="0.26551031"
     inkscape:cx="263.64325"
     inkscape:cy="242.92842"
     inkscape:window-width="1920"
     inkscape:window-height="991"
     inkscape:window-x="-9"
     inkscape:window-y="-9"
     inkscape:window-maximized="1"
     inkscape:current-layer="g15" />
  <g
     inkscape:groupmode="layer"
     inkscape:label="Image"
     id="g15">
    <g
       id="g117"
       transform="translate(6.3382604,0.05879825)">
      <path
         style="fill:#cfcfcf"
         d="m 240.28012,510.50366 c -7.96239,-1.94517 -15.19492,-9.03042 -19.03103,-18.64349 -1.60529,-4.02277 -1.76245,-12.07749 -2.031,-104.0912 L 218.92702,288.03794 120.21351,287.76897 21.5,287.5 16.392402,284.80531 C 9.3527985,281.09133 2.4985223,273.27849 1.4691156,267.79501 c -1.03639491,-5.52071 -1.03639491,-18.06931 0,-23.59002 1.0294067,-5.48348 7.8836829,-13.29632 14.9232864,-17.0103 L 21.5,224.5 l 99,-0.5 99,-0.5 -0.38464,-96.5 c -0.28501,-71.50462 -0.0796,-97.954784 0.79318,-102.116503 1.42787,-6.808841 6.33452,-15.2123021 11.12257,-19.0492364 6.69233,-5.36295456 20.36693,-7.2679687 31.44971,-4.3812727 9.00428,2.3453182 14.06449,6.9634496 18.73918,17.1020671 L 283.5,23.5 l 0.27766,100.2318 0.27766,100.23181 103.22234,0.26819 L 490.5,224.5 l 4.5,2.35602 c 14.78871,7.7428 19.09307,19.31251 15.40589,41.40953 -0.82021,4.91544 -8.02193,12.96467 -14.79829,16.53976 L 490.5,287.5 387.5,288 284.5,288.5 284,389 c -0.49762,100.02244 -0.51016,100.52197 -2.63733,105.1224 -2.25688,4.88097 -8.39053,12.28696 -11.59755,14.0033 -6.85633,3.6694 -19.8943,4.72091 -29.485,2.37796 z"
         id="path131" />
      <path
         style="fill:#b4b4b4"
         d="m 240.39813,510.17863 c -8.16213,-2.8804 -13.62757,-8.09176 -17.66816,-16.84679 L 220.5,488.5 220.22679,388.2783 219.95358,288.05661 122.22679,287.773 C 10.231497,287.44799 19.211821,288.21566 8.9060658,278.08601 2.5526635,271.84118 0,265.51087 0,256 0,246.48913 2.5526635,240.15882 8.9060658,233.91399 19.211948,223.78422 10.228315,224.55201 122.25,224.22697 L 220,223.94335 V 125.15318 C 220,15.848661 219.73101,20.568872 226.46233,11.753131 232.31386,4.0896082 240.90241,0.08826587 251.5,0.08826587 c 13.39609,0 23.87096,6.64824633 29.26418,18.57353613 C 282.36403,22.199341 282.53917,30.41167 283,123.5 l 0.5,101 H 385 c 116.93044,0 107.94094,-0.71906 118.10729,9.44729 C 509.40836,240.24836 512,246.67527 512,256 c 0,9.51087 -2.55266,15.84118 -8.90607,22.08601 -10.30558,10.12948 -0.78745,9.32756 -117.59393,9.90753 l -102,0.50646 -0.5,101 -0.5,101 -2.9663,5.35541 c -3.5283,6.37006 -10.38192,12.6941 -15.41103,14.22023 -6.67813,2.02654 -18.13291,2.07627 -23.72454,0.10299 z"
         id="path129" />
      <path
         style="fill:#939393"
         d="m 241.33245,510.14893 c -9.27839,-3.20638 -16.82173,-11.05202 -19.33937,-20.11441 -0.61172,-2.20193 -0.98403,-40.54603 -0.9875,-101.70273 -0.003,-53.99252 -0.27872,-98.88002 -0.61257,-99.75 C 219.84531,287.15449 210.34027,287 123.07451,287 17.103299,287 20.738646,287.19508 12.397166,281.06069 -3.5692114,269.31889 -3.9788211,243.37407 11.614408,231.48053 19.941908,225.12884 12.81941,225.54889 121.5,225 l 99,-0.5 v -99 C 220.5,71.05 220.8917,24.925 221.37044,23 224.70767,9.5810984 237.23549,0.03036132 251.5,0.03036132 c 9.35647,0 17.17147,3.51738518 23.3104,10.49157768 8.19255,9.307228 7.64519,1.455131 7.9627,114.228061 L 283.05535,225 h 101.31339 c 110.45347,0 106.09158,-0.21946 114.80622,5.77637 16.34611,11.24642 16.99012,37.7075 1.21063,49.7431 C 492.04473,286.88135 499.60881,286.45093 386.5,287 l -103,0.5 -0.5,100.5 -0.5,100.5 -2.68919,5.5 c -1.47906,3.025 -3.50406,6.4 -4.5,7.5 -8.63928,9.5419 -21.74268,12.87728 -33.97836,8.64893 z"
         id="path127" />
      <path
         style="fill:#727272"
         d="M 243.5,510.66163 C 234.12239,507.55416 227.68267,501.9444 223.79935,493.5 L 221.5,488.5 221,388 l -0.5,-100.5 -98,-0.5239 C 48.515401,286.58059 23.614763,286.14954 20.887599,285.21709 15.753005,283.46153 9.5077789,278.68365 5.9774428,273.81016 -6.9823227,255.91973 2.9976157,230.62181 24.799221,226.09927 28.435645,225.34493 60.049127,225 125.54922,225 H 221 v -99.96249 c 0,-98.500052 0.0301,-100.043073 2.06099,-105.470976 2.49544,-6.669661 8.61515,-13.2483519 15.45483,-16.6139623 7.07849,-3.48311866 18.86288,-3.49661038 25.90709,-0.02966 6.2803,3.0909763 12.18617,8.9968513 14.92792,14.9279233 C 281.49409,22.487212 281.50138,22.779193 282,124 l 0.5,101.5 h 103 103 l 4.6224,2.13733 c 14.19135,6.56186 21.67454,22.22971 17.49082,36.62121 -3.15376,10.84854 -12.33245,19.40483 -23.14605,21.57651 C 483.28531,286.67488 453.95466,287 382.36957,287 H 283.0727 L 282.78635,387.25 282.5,487.5 l -2.60111,5.54563 c -3.55624,7.58198 -8.02371,12.37909 -14.46191,15.52901 -6.46287,3.16198 -15.96489,4.06596 -21.93698,2.08699 z"
         id="path125" />
      <path
         style="fill:#525252"
         d="m 245.43804,511.11976 c -4.93101,-1.27262 -13.39387,-6.27991 -16.1806,-9.57371 C 227.84003,499.87072 225.51475,496.025 224.09016,493 L 221.5,487.5 221,387 220.5,286.5 121.5,286 C 23.225423,285.50366 22.466371,285.48445 17.910609,283.37728 12.035298,280.65978 6.7175085,275.32214 3.304413,268.71657 -0.56289114,261.23195 -0.54876163,250.74126 3.3387592,243.21565 7.0139927,236.10099 13.00466,230.5161 19.613264,228.04351 24.97649,226.03687 26.83227,226 122.4785,226 c 76.82463,0 97.57439,-0.26409 98.21248,-1.25 C 221.13594,224.0625 221.5,178.5 221.5,123.5 v -100 l 2.13733,-4.622405 C 226.72154,12.207361 232.34335,6.4619398 238.83864,3.3420395 253.90471,-3.8946901 272.04952,3.0614227 279.36267,18.877595 281.49012,23.47864 281.50231,23.966713 282,124.5 l 0.5,101 103.5,0.5 c 102.76147,0.49643 103.53211,0.51509 108,2.61442 5.70898,2.68248 11.46752,8.47624 14.79511,14.88558 3.76434,7.2506 3.70824,17.84665 -0.13387,25.28435 -3.67523,7.11466 -9.6659,12.69955 -16.2745,15.17214 C 487.01818,285.96513 485.19567,286 385.58493,286 c -83.09496,0 -101.53874,0.23941 -102.44367,1.32979 -0.78467,0.94548 -1.18131,30.3511 -1.37244,101.75 L 281.5,489.5 l -2.6636,5 c -6.61612,12.41949 -21.3207,19.73682 -33.39836,16.61976 z"
         id="path123" />
      <path
         style="fill:#2d2d2d"
         d="m 246.5,511.08878 c -5.04438,-1.28573 -12.82701,-5.7296 -16.19878,-9.24949 -1.75932,-1.83661 -4.23432,-5.58929 -5.5,-8.33929 l -2.30122,-5 -0.5,-101 -0.5,-101 -99,-0.5 C 24.480847,285.50495 23.454913,285.47914 18.949195,283.39434 12.244953,280.29229 7.6290176,275.771 3.993468,268.74524 1.3232354,263.58498 0.7618004,261.37076 0.7618004,256 c 0,-11.38631 7.2760303,-22.34566 18.1873946,-27.39434 C 23.454913,226.52086 24.480847,226.49505 122.5,226 l 99,-0.5 L 222,124 c 0.49463,-100.409443 0.52251,-101.54835 2.59515,-106 2.53958,-5.454524 9.60894,-12.1455782 16.01252,-15.1556148 10.69581,-5.0276249 23.83412,-1.7080751 32.82695,8.2941218 8.03416,8.93592 7.56538,1.877147 7.56538,113.917183 0,85.64692 0.20337,99.8682 1.44286,100.89689 1.10548,0.91746 25.36492,1.12146 103.75,0.87244 96.16449,-0.30551 102.54268,-0.21867 106.23004,1.44619 6.61973,2.98886 12.09858,8.24747 15.55714,14.93179 2.69753,5.21348 3.25816,7.41545 3.25816,12.797 0,11.38631 -7.27603,22.34566 -18.18739,27.39434 -4.51048,2.087 -5.46362,2.11009 -107.55081,2.60566 l -103,0.5 -0.5,100.52205 -0.5,100.52205 -3.2849,6.67157 c -3.45922,7.02557 -7.54002,10.99778 -14.95616,14.55814 -4.93209,2.3678 -12.46774,3.40873 -16.75894,2.31497 z"
         id="path121" />
      <path
         style="fill:#000000"
         d="m 247.72906,511.26389 c -2.07401,-0.21291 -3.50996,-0.80939 -3.19098,-1.3255 0.31897,-0.51612 -0.0158,-0.93839 -0.74387,-0.93839 -2.05009,0 -8.98052,-3.91269 -12.13746,-6.85239 -1.56378,-1.45619 -4.03878,-4.89761 -5.5,-7.64761 l -2.65675,-5 -0.26873,-100.92011 c -0.19111,-71.76849 -0.58755,-101.30425 -1.37245,-102.25 C 220.95442,285.24015 203.29409,285 124.05906,285 18.014123,285 21.71698,285.19959 13.192038,279.02415 8.9022161,275.91662 3.0371469,266.98835 2.9940713,263.5 c -0.018769,-1.51997 -0.2330676,-1.67107 -0.8928594,-0.62952 -0.5934925,0.93688 -0.9924845,0.0668 -1.26111306,-2.75 C 0.26616374,254.1022 1.0306448,247.43953 2.1012119,249.12952 2.7610037,250.17107 2.975302,250.01997 2.9940713,248.5 3.0371469,245.01165 8.9022161,236.08338 13.192038,232.97585 21.71698,226.80041 18.014123,227 124.05906,227 c 83.00717,0 96.86548,-0.20415 97.8929,-1.44212 0.91496,-1.10245 1.14238,-24.9501 0.96557,-101.25 L 222.68625,24.5 224.90123,19.401179 C 227.7284,12.893132 234.25556,6.4837836 240.56463,4.020496 243.27908,2.9606751 245.05,2.0086431 244.5,1.9048692 c -0.55,-0.1037739 0.8,-0.4623224 3,-0.7967745 4.79205,-0.7285043 11.67439,-0.19928712 11.02718,0.847933 -0.25393,0.4108606 1.38035,1.2989077 3.63173,1.973438 5.48828,1.644327 13.08223,8.9404973 15.98353,15.3567703 L 280.5,24.5 l 0.28602,101.25 c 0.2678,94.79997 0.39521,101.25561 2,101.33799 0.94269,0.0484 46.71398,0.0252 101.71398,-0.0515 110.74257,-0.15452 105.76917,-0.42909 114.61842,6.32781 4.43173,3.38387 9.86816,11.77239 9.89689,15.27108 0.0118,1.44185 0.21218,1.55391 0.88348,0.49419 0.59349,-0.93688 0.99248,-0.0668 1.26111,2.75 0.57394,6.01828 -0.19054,12.68095 -1.26111,10.99096 -0.65979,-1.04155 -0.87409,-0.89045 -0.89286,0.62952 -0.0388,3.14008 -5.63473,12.11509 -9.2941,14.90623 C 491.20185,284.8971 498.99203,284.44931 385,285 l -103.5,0.5 -0.5,101.5 -0.5,101.5 -2.2798,4.62728 C 274.3996,500.88191 264.81536,509 259.48082,509 c -0.87937,0 -1.32074,0.45 -0.98082,1 0.34849,0.56387 -0.46235,1 -1.8592,1 -1.36247,0 -3.07653,0.14648 -3.80901,0.32551 -0.73249,0.17902 -3.02871,0.1513 -5.10273,-0.0616 z"
         id="path119" />
    </g>
    <path
       style="fill:#ffffff;stroke-width:0.6658"
       d="m 251.89947,510.22013 c -0.48389,-0.46198 -3.17423,-1.96278 -5.97853,-3.33511 -5.89479,-2.88471 -10.40525,-7.35535 -13.64071,-13.52029 l -2.06942,-3.94312 -0.41693,-96.20807 c -0.22931,-52.91443 -0.60693,-98.65566 -0.83917,-101.64717 -0.36827,-4.74381 -0.60206,-5.49961 -1.82884,-5.91237 -0.77363,-0.26029 -44.55042,-0.70464 -97.28176,-0.98745 -66.33857,-0.35579 -97.07442,-0.74529 -99.76794,-1.26432 -5.30749,-1.02273 -8.75746,-2.91543 -12.726991,-6.98217 -3.594257,-3.68229 -7.6819206,-10.61864 -7.6819206,-13.03545 0,-0.97645 -0.308819,-1.35758 -0.912358,-1.12598 -1.150242,0.44139 -1.861131,-4.73888 -1.300231,-9.4748 0.284299,-2.40046 0.631499,-3.18149 1.300231,-2.92487 0.603539,0.2316 0.912358,-0.14953 0.912358,-1.12598 0,-2.4168 4.0876636,-9.35316 7.6819206,-13.03544 3.96853,-4.06572 7.417839,-5.95851 12.726991,-6.98386 2.70016,-0.52147 33.26575,-0.90757 99.76794,-1.26024 52.73134,-0.27964 96.51201,-0.72425 97.29039,-0.98802 1.06688,-0.36155 1.51756,-1.22617 1.83095,-3.51263 0.22865,-1.66817 0.41572,-47.03307 0.41572,-100.81089 V 24.364042 l 2.11312,-4.495926 c 2.94798,-6.272179 9.19223,-12.3805527 16.19638,-15.8439387 4.9088,-2.427289 5.75885,-2.63378 10.84236,-2.63378 3.17004,0 5.7185,0.302397 5.9922,0.711025 0.26192,0.391064 2.46901,1.634819 4.90463,2.763901 6.06741,2.812671 11.73113,8.5509257 14.7586,14.9528087 l 2.30552,4.875256 0.43458,97.872562 c 0.23902,53.82991 0.64638,99.37061 0.90524,101.20156 l 0.47065,3.329 100.86866,0.3683 c 105.80755,0.38633 106.17722,0.39733 111.93284,3.33364 5.56563,2.83937 13.90331,13.59453 13.90331,17.93453 0,0.97552 0.309,1.35751 0.91117,1.12644 0.67442,-0.2588 1.00374,0.54717 1.2674,3.10178 0.5203,5.04116 -0.11647,9.73863 -1.26061,9.29958 -0.60997,-0.23407 -0.91796,0.143 -0.91796,1.12383 0,4.44322 -9.16768,16.19983 -14.30691,18.34713 -1.31384,0.54896 -5.29857,1.29847 -8.85498,1.66559 -5.01665,0.51784 -120.50313,1.65704 -194.95576,1.9231 l -9.38944,0.0336 -0.48708,101.70091 -0.48709,101.70091 -2.09536,3.94312 c -3.72917,7.01768 -10.54054,13.40884 -16.46627,15.45041 -1.52192,0.52434 -3.20754,1.39377 -3.74582,1.93206 -1.26929,1.26928 -11.02188,1.3791 -12.32108,0.13873 z"
       id="path188" />
    <path
       style="fill:#ffffff;stroke-width:0.6658"
       d="m 254.72662,510.59323 c -3.06562,-0.61213 -12.99615,-6.47698 -16.07548,-9.49399 -1.69657,-1.66223 -4.19257,-4.93782 -5.54666,-7.2791 l -2.46198,-4.25687 -0.61858,-99.94079 c -0.34021,-54.96744 -0.86951,-100.83963 -1.17619,-101.9382 l -0.55761,-1.99739 -10.60662,-0.41139 c -5.83364,-0.22626 -44.46254,-0.6313 -85.84199,-0.90007 -41.37945,-0.26878 -81.52718,-0.69618 -89.21716,-0.94979 -13.21806,-0.43591 -14.191135,-0.55758 -17.814112,-2.22746 -5.069258,-2.33647 -9.910169,-7.47084 -13.002356,-13.79054 -1.351947,-2.76306 -2.8360716,-5.41966 -3.2980536,-5.90355 -1.255691,-1.31525 -1.113418,-9.73733 0.18645,-11.0372 0.56453,-0.56452 1.3615686,-2.00908 1.7711966,-3.2101 2.165529,-6.34932 8.636944,-13.70246 14.414664,-16.37865 3.674131,-1.70182 4.195801,-1.7535 22.735701,-2.25232 10.43641,-0.2808 55.19867,-0.76894 99.47169,-1.08476 77.08889,-0.5499 80.53439,-0.62617 81.39402,-1.80178 0.74352,-1.01682 0.89762,-18.36375 0.89762,-101.03938 V 24.888113 l 2.49408,-4.757961 c 3.48016,-6.639122 9.18643,-12.1791987 16.11797,-15.6485447 4.8795,-2.442267 6.0422,-2.75831 10.14759,-2.75831 4.28314,0 5.07366,0.241122 10.36829,3.162549 7.00958,3.867682 11.81557,8.5854977 15.08608,14.8092797 l 2.47034,4.701064 0.60393,99.26081 c 0.33215,54.59345 0.78691,100.23625 1.01057,101.42845 l 0.40665,2.16763 93.65375,0.47248 c 98.10468,0.49492 113.17265,0.84028 117.54442,2.69413 5.02904,2.13255 15.05862,13.48139 15.05862,17.03938 0,0.64945 0.52103,1.70185 1.15785,2.33866 0.82394,0.82394 1.22563,2.51773 1.39292,5.8733 0.20115,4.03486 0.034,4.94639 -1.15784,6.31539 -0.76611,0.87996 -1.39293,2.10685 -1.39293,2.72642 0,1.60925 -4.61718,8.44431 -8.17834,12.10682 -3.75797,3.86495 -5.64166,4.84064 -11.12985,5.76496 -4.1499,0.69892 -97.34191,1.91789 -174.55107,2.28317 -17.82155,0.0843 -32.59574,0.34648 -32.83154,0.58259 -0.2358,0.23611 -0.66386,46.12716 -0.95124,101.98011 l -0.5225,101.55082 -3.1186,5.00358 c -1.71523,2.75197 -4.67569,6.40355 -6.57882,8.11461 -6.28672,5.65232 -16.33585,9.57578 -21.75488,8.49373 z"
       id="path264" />
  </g>
</svg>
