<svg id="Слой_1" data-name="Слой 1" xmlns="http://www.w3.org/2000/svg" viewBox="0 0 150 190"><defs><style>.cls-1{fill-rule:evenodd;}</style></defs><title>Монтажная область 24</title><path class="cls-1" d="M115.5,74.5,101.68,63.89c1.95-2.74,3.51-4.85,4.41-5.9,4.94-5.77,18.22,3.34,13.33,10.67ZM90.21,111.9l-15.29,6.36,1.3-16.87s6.53-9.86,13.57-20.26l-6.12-16L53.72,73.67l5.86,19.44L41.79,98.28,58.2,142.64l49.41-15L99.7,107l3.46-6.24,11.27,30.76-60.16,18L35.18,95.66,46.78,70l40.79-11.8,6.25,17c1.66-2.43,3.28-4.79,4.79-7l13.9,10.67C103.61,92.11,90.21,111.9,90.21,111.9Z"/></svg>